<?xml version="1.0" encoding="utf-8"?>
<!-- Generator: Adobe Illustrator 27.4.1, SVG Export Plug-In . SVG Version: 6.00 Build 0)  -->
<svg version="1.1" id="Layer_1" xmlns="http://www.w3.org/2000/svg" xmlns:xlink="http://www.w3.org/1999/xlink" x="0px" y="0px"
	 viewBox="0 0 138 29" style="enable-background:new 0 0 138 29;" xml:space="preserve">
<style type="text/css">
	.st0{fill:#FFFFFF;}
	.st1{fill:#AA8453;}
	.st2{font-family:'BodoniMT';}
	.st3{font-size:17.7653px;}
	.st4{font-size:15.7572px;}
</style>
<path class="st0" d="M50.9-31.6c0-0.1,0-0.1,0.1-0.1h0.6c0.1,0,0.1,0,0.1,0.1v7.8c0,0.1,0,0.1-0.1,0.1H51c-0.1,0-0.1,0-0.1-0.1v-3.5
	l0,0h-2l0,0v3.5c0,0.1,0,0.1-0.1,0.1h-0.6c-0.1,0-0.1,0-0.1-0.1v-7.8c0-0.1,0-0.1,0.1-0.1h0.6c0.1,0,0.1,0,0.1,0.1v3.5l0,0h2l0,0
	V-31.6z"/>
<path class="st0" d="M59.3-23.6c-0.6,0-1.1-0.2-1.4-0.5c-0.4-0.4-0.5-0.9-0.5-1.5v-4.2c0-0.6,0.2-1.1,0.5-1.5
	c0.4-0.4,0.8-0.5,1.4-0.5c0.6,0,1.1,0.2,1.4,0.5c0.4,0.4,0.5,0.9,0.5,1.5v4.2c0,0.6-0.2,1.1-0.5,1.5C60.4-23.8,59.9-23.6,59.3-23.6z
	 M59.3-24.3c0.4,0,0.6-0.1,0.8-0.3c0.2-0.2,0.3-0.5,0.3-0.9v-4.3c0-0.4-0.1-0.7-0.3-0.9c-0.2-0.2-0.5-0.4-0.8-0.4s-0.6,0.1-0.8,0.4
	c-0.2,0.2-0.3,0.5-0.3,0.9v4.3c0,0.4,0.1,0.7,0.3,0.9C58.7-24.4,58.9-24.3,59.3-24.3z"/>
<path class="st0" d="M70.4-31.7c0.1,0,0.1,0,0.1,0.1v0.5c0,0.1,0,0.1-0.1,0.1h-1.5l0,0v7.1c0,0.1,0,0.1-0.1,0.1h-0.6
	c-0.1,0-0.1,0-0.1-0.1V-31l0,0h-1.4c-0.1,0-0.1,0-0.1-0.1v-0.5c0-0.1,0-0.1,0.1-0.1H70.4z"/>
<path class="st0" d="M79.4-31.1c0,0.1,0,0.1-0.1,0.1h-2.7l0,0v2.8l0,0h1.7c0.1,0,0.1,0,0.1,0.1v0.5c0,0.1,0,0.1-0.1,0.1h-1.7l0,0
	v2.8l0,0h2.7c0.1,0,0.1,0,0.1,0.1v0.5c0,0.1,0,0.1-0.1,0.1h-3.4c-0.1,0-0.1,0-0.1-0.1v-7.8c0-0.1,0-0.1,0.1-0.1h3.4
	c0.1,0,0.1,0,0.1,0.1V-31.1z"/>
<path class="st0" d="M84.9-23.7c-0.1,0-0.1,0-0.1-0.1v-7.8c0-0.1,0-0.1,0.1-0.1h0.6c0.1,0,0.1,0,0.1,0.1v7.1l0,0h2.6
	c0.1,0,0.1,0,0.1,0.1v0.5c0,0.1,0,0.1-0.1,0.1h-3.3V-23.7z"/>
<path class="st0" d="M104.7-23.8L104.7-23.8c0,0.1,0,0.1,0,0.1s0,0-0.1,0H104c-0.1,0-0.1,0-0.1-0.1l-0.5-0.7l0,0l0,0
	c-0.3,0.3-0.6,0.5-0.9,0.7c-0.3,0.1-0.6,0.2-1,0.2c-0.6,0-1.1-0.2-1.4-0.5s-0.5-0.8-0.5-1.4c0-0.5,0.1-1,0.4-1.3
	c0.2-0.4,0.6-0.8,1-1.1c0,0,0,0,0-0.1c-0.3-0.4-0.5-0.7-0.6-0.9c-0.1-0.2-0.2-0.4-0.3-0.6c0-0.2-0.1-0.3-0.1-0.5
	c0-0.5,0.2-1,0.5-1.3s0.7-0.5,1.2-0.5s0.9,0.2,1.2,0.5c0.3,0.3,0.5,0.7,0.5,1.3c0,0.5-0.1,0.9-0.4,1.2c-0.2,0.3-0.6,0.7-1,1.1
	c0,0,0,0,0,0.1c0.3,0.4,0.5,0.8,0.7,1l0.7,1l0,0l0,0c0.1-0.2,0.3-0.5,0.5-0.9c0,0,0,0,0.1-0.1h0.1l0.4,0.3c0.1,0,0.1,0.1,0,0.2
	c-0.2,0.4-0.5,0.9-0.7,1.2c0,0,0,0,0,0.1L104.7-23.8z M101.7-31c-0.3,0-0.5,0.1-0.6,0.3c-0.2,0.2-0.2,0.4-0.2,0.8
	c0,0.2,0,0.4,0.1,0.6s0.3,0.5,0.6,0.9c0,0,0,0,0.1,0c0.3-0.3,0.6-0.5,0.7-0.8c0.2-0.2,0.3-0.5,0.3-0.8s-0.1-0.5-0.2-0.7
	C102.1-31,101.9-31,101.7-31z M101.5-24.3c0.3,0,0.5-0.1,0.7-0.2s0.4-0.3,0.7-0.6c0,0,0,0,0-0.1l-0.5-0.8l-0.9-1.3c0,0,0,0-0.1,0
	c-0.3,0.3-0.6,0.6-0.8,0.8c-0.2,0.3-0.3,0.6-0.3,0.9c0,0.4,0.1,0.6,0.3,0.9S101.1-24.3,101.5-24.3z"/>
<path class="st0" d="M118.2-23.6c-0.6,0-1-0.2-1.4-0.6c-0.3-0.4-0.5-0.9-0.5-1.5V-26c0-0.1,0-0.1,0.1-0.1h0.6c0.1,0,0.1,0,0.1,0.1
	v0.2c0,0.4,0.1,0.7,0.3,1c0.2,0.2,0.5,0.4,0.8,0.4s0.6-0.1,0.8-0.4c0.2-0.2,0.3-0.5,0.3-0.9c0-0.3-0.1-0.5-0.2-0.7s-0.2-0.4-0.4-0.5
	c-0.2-0.1-0.4-0.4-0.8-0.7c-0.4-0.3-0.7-0.5-0.9-0.7c-0.2-0.2-0.4-0.4-0.5-0.7c-0.1-0.3-0.2-0.6-0.2-1c0-0.6,0.2-1.1,0.5-1.4
	c0.3-0.4,0.8-0.5,1.3-0.5c0.6,0,1,0.2,1.4,0.6s0.5,0.9,0.5,1.5v0.3c0,0.1,0,0.1-0.1,0.1h-0.6c-0.1,0-0.1,0-0.1-0.1v-0.3
	c0-0.4-0.1-0.7-0.3-1c-0.2-0.3-0.5-0.4-0.8-0.4s-0.6,0.1-0.8,0.3c-0.2,0.2-0.3,0.5-0.3,0.9c0,0.2,0,0.4,0.1,0.6s0.2,0.3,0.4,0.5
	c0.2,0.2,0.4,0.4,0.8,0.6c0.5,0.3,0.8,0.6,1,0.8c0.2,0.2,0.4,0.4,0.5,0.7c0.1,0.2,0.2,0.5,0.2,0.9c0,0.6-0.2,1.1-0.5,1.5
	C119.2-23.8,118.7-23.6,118.2-23.6z"/>
<path class="st0" d="M127.4-31.7c0.6,0,1,0.2,1.3,0.6s0.5,0.9,0.5,1.6s-0.2,1.2-0.5,1.6s-0.8,0.6-1.3,0.6h-1.2l0,0v3.5
	c0,0.1,0,0.1-0.1,0.1h-0.6c-0.1,0-0.1,0-0.1-0.1v-7.8c0-0.1,0-0.1,0.1-0.1C125.5-31.7,127.4-31.7,127.4-31.7z M127.3-28
	c0.3,0,0.6-0.1,0.8-0.4c0.2-0.3,0.3-0.6,0.3-1.1s-0.1-0.8-0.3-1.1c-0.2-0.3-0.5-0.4-0.8-0.4h-1l0,0v2.9l0,0h1V-28z"/>
<path class="st0" d="M137.3-23.7c-0.1,0-0.1,0-0.1-0.1l-0.3-1.4l0,0l0,0h-2.1l0,0l0,0l-0.3,1.4c0,0.1,0,0.1-0.1,0.1h-0.6h-0.1v-0.1
	l1.7-7.8c0-0.1,0.1-0.1,0.1-0.1h0.7c0.1,0,0.1,0,0.1,0.1l1.7,7.8l0,0c0,0.1,0,0.1-0.1,0.1C137.9-23.7,137.3-23.7,137.3-23.7z
	 M134.8-26C134.8-25.9,134.9-25.9,134.8-26h1.8l0,0l-0.9-4.5l0,0l0,0L134.8-26z"/>
<path class="st1" d="M55.4-40.5c0.6,0,1,0,1.2-0.1s0.4-0.3,0.4-0.7s-0.4-1.7-1.2-3.9h-7c-0.7,1.9-1,3.1-1,3.6s0.1,0.8,0.4,0.9
	c0.3,0.1,0.7,0.2,1.4,0.2v0.3h-5.2v-0.3c0.4,0,0.8,0,1-0.1c0.3-0.1,0.5-0.3,0.8-0.6s0.6-0.8,0.9-1.4c0.3-0.6,0.6-1.5,1-2.6l2.1-5.8
	c0.7-2.1,1.1-3.3,1.1-3.7s-0.1-0.7-0.3-0.8s-0.6-0.2-1.2-0.2v-0.2h3.8L57.7-45c0.7,1.8,1.2,2.9,1.4,3.4s0.5,0.8,0.7,0.9
	c0.4,0.3,0.9,0.4,1.5,0.4v0.3h-5.8L55.4-40.5z M52.2-54.9l-3.3,9.1h6.7L52.2-54.9z"/>
<path class="st1" d="M70.8-54.7c2.6,0,4.6,0.2,5.9,0.7c0.6,0.2,1.2,0.5,1.9,0.9s1.2,0.9,1.6,1.4s0.8,1.2,1.1,2.1
	c0.3,0.8,0.4,1.8,0.4,2.9c0,1-0.1,2-0.4,2.8s-0.6,1.5-1.1,2.1c-0.4,0.5-0.9,1-1.6,1.4c-0.6,0.4-1.2,0.7-1.8,0.9
	c-0.6,0.2-1.2,0.4-1.8,0.5c-0.9,0.2-1.8,0.2-2.8,0.2H66v-0.3c0.8,0,1.3-0.1,1.7-0.4c0.4-0.3,0.6-1.8,0.6-4.4v-5.6
	c0-1.6-0.1-2.7-0.2-3.3s-0.2-1-0.4-1.1c-0.4-0.3-0.9-0.4-1.7-0.4v-0.2h4.8V-54.7z M70.9-39.4c0.2,0,0.6,0,1.1,0
	c0.6,0,1.2-0.1,1.9-0.2c0.7-0.1,1.4-0.3,2.1-0.7c0.7-0.3,1.4-0.8,1.9-1.3s1-1.2,1.3-2.1c0.4-0.9,0.5-1.9,0.5-3.1
	c0-1.2-0.2-2.2-0.5-3.1c-0.3-0.9-0.8-1.6-1.3-2.1s-1.2-1-1.9-1.3c-1.3-0.6-2.7-0.9-4.2-0.9c-0.7,0-1.3,0-1.8,0.1v10.4
	c0,1.6,0,2.7,0.1,3.2C70.3-39.9,70.5-39.6,70.9-39.4z"/>
<path class="st1" d="M90.9-49.6v5.6c0,1.6,0,2.7,0.1,3.3s0.3,1,0.4,1.1c0.4,0.3,0.9,0.4,1.7,0.4v0.3h-6.2v-0.3c0.4,0,0.7,0,0.9,0
	s0.4-0.1,0.6-0.2c0.2-0.1,0.3-0.3,0.4-0.5s0.2-0.5,0.2-0.9c0.1-0.5,0.1-1.6,0.1-3.2v-5.6c0-1.6,0-2.7-0.1-3.3s-0.2-1-0.4-1.2
	c-0.4-0.3-0.9-0.4-1.7-0.4v-0.2h6.2v0.2c-0.8,0-1.3,0.1-1.7,0.4C91-53.7,90.9-52.2,90.9-49.6z"/>
<path class="st1" d="M113.2-49.6v10.9h-0.7l-10.9-13.5v8.2c0,1.5,0.1,2.6,0.2,3.3s0.4,1.1,0.7,1.3c0.3,0.2,0.9,0.3,1.6,0.3v0.3h-5.7
	v-0.3c0.7,0,1.3-0.1,1.6-0.3c0.3-0.2,0.6-0.7,0.7-1.3c0.2-0.7,0.2-1.8,0.2-3.3v-5.6c0-1.5-0.1-2.6-0.2-3.2c-0.1-0.7-0.4-1.1-0.7-1.3
	c-0.3-0.2-0.8-0.3-1.6-0.3v-0.2h3.1l11,13.5v-8.4c0-1.5-0.1-2.6-0.2-3.2c-0.1-0.7-0.4-1.1-0.7-1.3c-0.3-0.2-0.9-0.3-1.6-0.3v-0.2
	h5.7v0.2c-0.8,0-1.3,0.1-1.6,0.3c-0.3,0.2-0.6,0.6-0.7,1.3C113.2-52.2,113.2-51.1,113.2-49.6z"/>
<path class="st1" d="M130.1-39.1c0.6,0,1,0,1.2-0.1s0.4-0.3,0.4-0.7s-0.4-1.7-1.2-3.9h-7c-0.7,1.9-1,3.1-1,3.6s0.1,0.8,0.4,0.9
	c0.3,0.1,0.7,0.2,1.4,0.2v0.3h-5.2v-0.3c0.4,0,0.8,0,1-0.1c0.3-0.1,0.5-0.3,0.8-0.6s0.6-0.8,0.9-1.4c0.3-0.6,0.6-1.5,1-2.6l2.1-5.8
	c0.7-2.1,1.1-3.3,1.1-3.7s-0.1-0.7-0.3-0.8c-0.2-0.1-0.6-0.2-1.2-0.2v-0.2h3.8l4.1,10.9c0.7,1.8,1.2,2.9,1.4,3.4s0.5,0.8,0.7,0.9
	c0.4,0.3,0.9,0.4,1.5,0.4v0.3h-5.8L130.1-39.1z M126.8-53.5l-3.3,9.1h6.7L126.8-53.5z"/>
<path class="st1" d="M4.4,25c-0.1,0-0.1,0-0.2,0S4,24.9,4,24.8C-1.5,19.4,0.2,9,0.3,8.5l0.1-0.4L0.8,8C1.2,8,11.6,6.3,17,11.8
	c0.1,0.1,0.1,0.2,0.1,0.4c0,0.1-0.1,0.3-0.1,0.4c-0.1,0.1-0.2,0.1-0.4,0.1c-0.1,0-0.3-0.1-0.4-0.1C11.8,8,3.1,8.8,1.3,9.1
	C1,11,0.2,19.6,4.7,24.1c0.1,0.1,0.1,0.2,0.1,0.4c0,0.1-0.1,0.3-0.1,0.4C4.7,24.9,4.6,25,4.4,25L4.4,25z"/>
<path class="st1" d="M16,28.8c-3.6,0-8.7-0.7-12.1-4c-0.1-0.1-0.1-0.2-0.1-0.4c0-0.1,0.1-0.3,0.1-0.4c0.2,0,0.3,0,0.5,0
	c0.1,0,0.3,0.1,0.4,0.1c4.6,4.6,13.2,3.7,15.1,3.4c0.3-1.9,1.1-10.5-3.4-15c-0.1-0.1-0.1-0.2-0.1-0.4s0.1-0.3,0.1-0.4
	c0.1-0.1,0.2-0.1,0.4-0.1s0.3,0.1,0.4,0.1c5.5,5.5,3.8,15.9,3.7,16.3l-0.1,0.4l-0.4,0.1C18.9,28.7,17.5,28.8,16,28.8z"/>
<path class="st1" d="M36.4,25c-0.1,0-0.3-0.1-0.4-0.1c-0.1-0.1-0.1-0.2-0.1-0.4c0-0.1,0.1-0.3,0.1-0.4c4.6-4.6,3.7-13.2,3.4-15
	C37.6,8.8,29,8,24.4,12.5c-0.1,0.1-0.2,0.1-0.4,0.1c-0.1,0-0.3-0.1-0.4-0.1c-0.1-0.1-0.1-0.2-0.1-0.4s0.1-0.3,0.1-0.4
	c5.6-5.4,16-3.6,16.4-3.6l0.4,0.1l0.1,0.4c0.1,0.4,1.8,10.8-3.7,16.3C36.7,24.9,36.5,25,36.4,25z"/>
<path class="st1" d="M24.7,28.8c-1.4,0-2.8-0.1-4.3-0.3L20,28.4l0-0.3c-0.1-0.4-1.8-10.8,3.7-16.3c0.1-0.1,0.2-0.1,0.4-0.1
	c0.1,0,0.3,0.1,0.4,0.1c0.1,0.1,0.1,0.2,0.1,0.4c0,0.1-0.1,0.3-0.1,0.4c-4.6,4.6-3.7,13.2-3.4,15c1.9,0.2,10.5,1.1,15.1-3.4
	c0.1-0.1,0.2-0.1,0.4-0.1c0.1,0,0.3,0.1,0.4,0.1c0.1,0.1,0.1,0.2,0.1,0.4c0,0.1-0.1,0.3-0.1,0.4C33.4,28.2,28.3,28.8,24.7,28.8z"/>
<path class="st1" d="M20.2,28.7l-0.3-0.2c-0.4-0.3-8.9-6.4-8.9-14.1s8.6-13.9,8.9-14.1L20.2,0l0.3,0.2c0.4,0.3,8.9,6.4,8.9,14.1
	s-8.6,13.9-8.9,14.1L20.2,28.7z M20.2,1.3c-1.5,1.1-8.2,6.6-8.2,13s6.7,11.9,8.2,13.1c1.5-1.1,8.2-6.6,8.2-13.1
	C28.4,7.9,21.7,2.4,20.2,1.3z"/>
<text transform="matrix(0.9519 0 0 1 48.8809 11.6465)" class="st1 st2 st3">HOLIDAZE</text>
<text transform="matrix(0.7083 0 0 1 54.4 25)" class="st0 st2 st4">Luxury for rent</text>
</svg>
