<?xml version="1.0" encoding="utf-8"?>
<!-- Generator: Adobe Illustrator 27.4.1, SVG Export Plug-In . SVG Version: 6.00 Build 0)  -->
<svg version="1.1" id="Layer_1" xmlns="http://www.w3.org/2000/svg" xmlns:xlink="http://www.w3.org/1999/xlink" x="0px" y="0px"
	 viewBox="0 0 138 29" style="enable-background:new 0 0 138 29;" xml:space="preserve">
<style type="text/css">
	.st0{fill:#AA8453;}
	.st1{font-family:'BodoniMT';}
	.st2{font-size:17.7653px;}
	.st3{fill:#020202;}
	.st4{font-size:15.7572px;}
</style>
<path class="st0" d="M4.4,25c-0.1,0-0.1,0-0.2,0S4,24.9,4,24.8C-1.5,19.4,0.2,9,0.3,8.5l0.1-0.4L0.8,8C1.2,8,11.6,6.3,17,11.8
	c0.1,0.1,0.1,0.2,0.1,0.4c0,0.1-0.1,0.3-0.1,0.4c-0.1,0.1-0.2,0.1-0.4,0.1c-0.1,0-0.3-0.1-0.4-0.1C11.8,8,3.1,8.8,1.3,9.1
	C1,11,0.2,19.6,4.7,24.1c0.1,0.1,0.1,0.2,0.1,0.4c0,0.1-0.1,0.3-0.1,0.4C4.7,24.9,4.6,25,4.4,25L4.4,25z"/>
<path class="st0" d="M16,28.8c-3.6,0-8.7-0.7-12.1-4c-0.1-0.1-0.1-0.2-0.1-0.4c0-0.1,0.1-0.3,0.1-0.4c0.2,0,0.3,0,0.5,0
	c0.1,0,0.3,0.1,0.4,0.1c4.6,4.6,13.2,3.7,15.1,3.4c0.3-1.9,1.1-10.5-3.4-15c-0.1-0.1-0.1-0.2-0.1-0.4s0.1-0.3,0.1-0.4
	c0.1-0.1,0.2-0.1,0.4-0.1s0.3,0.1,0.4,0.1c5.5,5.5,3.8,15.9,3.7,16.3l-0.1,0.4l-0.4,0.1C18.9,28.7,17.5,28.8,16,28.8z"/>
<path class="st0" d="M36.4,25c-0.1,0-0.3-0.1-0.4-0.1c-0.1-0.1-0.1-0.2-0.1-0.4c0-0.1,0.1-0.3,0.1-0.4c4.6-4.6,3.7-13.2,3.4-15
	C37.6,8.8,29,8,24.4,12.5c-0.1,0.1-0.2,0.1-0.4,0.1c-0.1,0-0.3-0.1-0.4-0.1c-0.1-0.1-0.1-0.2-0.1-0.4s0.1-0.3,0.1-0.4
	c5.6-5.4,16-3.6,16.4-3.6l0.4,0.1l0.1,0.4c0.1,0.4,1.8,10.8-3.7,16.3C36.7,24.9,36.5,25,36.4,25z"/>
<path class="st0" d="M24.7,28.8c-1.4,0-2.8-0.1-4.3-0.3L20,28.4l0-0.3c-0.1-0.4-1.8-10.8,3.7-16.3c0.1-0.1,0.2-0.1,0.4-0.1
	c0.1,0,0.3,0.1,0.4,0.1c0.1,0.1,0.1,0.2,0.1,0.4c0,0.1-0.1,0.3-0.1,0.4c-4.6,4.6-3.7,13.2-3.4,15c1.9,0.2,10.5,1.1,15.1-3.4
	c0.1-0.1,0.2-0.1,0.4-0.1c0.1,0,0.3,0.1,0.4,0.1c0.1,0.1,0.1,0.2,0.1,0.4c0,0.1-0.1,0.3-0.1,0.4C33.4,28.2,28.3,28.8,24.7,28.8z"/>
<path class="st0" d="M20.2,28.7l-0.3-0.2c-0.4-0.3-8.9-6.4-8.9-14.1s8.6-13.9,8.9-14.1L20.2,0l0.3,0.2c0.4,0.3,8.9,6.4,8.9,14.1
	s-8.6,13.9-8.9,14.1L20.2,28.7z M20.2,1.3c-1.5,1.1-8.2,6.6-8.2,13s6.7,11.9,8.2,13.1c1.5-1.1,8.2-6.6,8.2-13.1
	C28.4,7.9,21.7,2.4,20.2,1.3z"/>
<text transform="matrix(0.9519 0 0 1 44.8183 11.5999)" class="st0 st1 st2">HOLIDAZE</text>
<text transform="matrix(0.7083 0 0 1 54.3375 24.9534)" class="st3 st1 st4">Luxury for rent</text>
</svg>
